<svg xmlns="http://www.w3.org/2000/svg" width="1100" height="1249" viewBox="0 0 1100 1249" version="1.1"><path d="M 517 421.935 C 473.432 425.935, 430.677 447.393, 409.027 476.125 C 401.881 485.607, 398.057 492.819, 395.115 502.355 C 393.072 508.978, 393 511.054, 393 563.605 L 393 618 383 618 L 373 618 373 737 L 373 856 545 856 L 717 856 717 737 L 717 618 708.039 618 L 699.078 618 698.746 561.750 L 698.413 505.500 695.647 497.500 C 692.331 487.914, 689.959 483.708, 682.468 474.135 C 664.204 450.792, 627.611 430.955, 589.929 423.970 C 580.592 422.240, 573.650 421.788, 552 421.503 C 537.425 421.311, 521.675 421.505, 517 421.935 M 530.500 465.584 C 529.400 465.840, 525.380 466.763, 521.567 467.635 C 496.774 473.307, 476.132 489.346, 464.594 511.902 L 459 522.839 459 570.420 L 459 618 546 618 L 633 618 633 570.420 L 633 522.839 627.406 511.902 C 616.010 489.625, 596.814 474.524, 571 467.532 C 564.702 465.826, 535.498 464.421, 530.500 465.584" stroke="none" fill="#245c94" fill-rule="evenodd"/><path d="M 529 1.886 C 525.975 2.864, 521.495 4.696, 519.045 5.957 C 512.687 9.229, 503.863 18.496, 500.436 25.500 L 497.500 31.500 497.230 125.818 L 496.960 220.136 452.230 175.200 C 427.629 150.485, 405.076 127.471, 402.114 124.059 C 396.522 117.616, 390.878 113.439, 385.584 111.825 C 378.621 109.701, 377.124 109.503, 368.500 109.562 C 359.053 109.627, 349.474 112.181, 343.846 116.135 C 342.386 117.161, 340.898 118, 340.540 118 C 339.280 118, 328.277 129.554, 325.223 134.083 C 312.631 152.762, 315.367 179.398, 331.311 193.355 C 334.544 196.185, 373.146 234.379, 417.094 278.231 L 497 357.963 497 391.481 C 497 409.917, 497.113 424.999, 497.250 424.999 C 497.387 424.998, 500.875 424.322, 505 423.497 C 520.233 420.449, 573.880 420.541, 588.250 423.640 L 591 424.233 591 391.117 C 591 372.902, 591.379 358, 591.843 358 C 592.307 358, 628.902 321.887, 673.165 277.750 C 717.429 233.613, 755.472 195.925, 757.707 194 C 767.407 185.643, 772.707 172.323, 771.672 158.903 C 771.067 151.062, 768.111 141.491, 764.859 136.846 C 763.836 135.386, 763 133.767, 763 133.249 C 763 131.573, 751.735 120.805, 746.430 117.412 C 735.964 110.717, 722.151 107.789, 711.481 110.004 C 698.061 112.790, 699.348 111.695, 643.406 167.922 L 591.500 220.091 591 125.796 L 590.500 31.500 587.564 25.500 C 582.112 14.359, 571.174 5.500, 558.068 1.612 C 550.703 -0.574, 536.184 -0.437, 529 1.886 M 857 192.301 C 856.725 192.565, 854.700 193.026, 852.500 193.323 C 840.549 194.941, 830.091 201.247, 822.356 211.500 C 818.549 216.546, 816.807 221.072, 814.079 233 C 812.884 238.225, 811.312 244.525, 810.586 247 C 809.859 249.475, 808.314 255.100, 807.152 259.500 C 805.990 263.900, 802.742 276.050, 799.935 286.500 C 797.127 296.950, 793.969 308.762, 792.915 312.750 C 790.431 322.154, 787.531 332.974, 785.479 340.500 C 784.579 343.800, 782.978 349.762, 781.921 353.750 C 780.865 357.738, 779.125 364.262, 778.056 368.250 C 776.987 372.238, 774.788 380.450, 773.170 386.500 C 771.551 392.550, 769.019 402, 767.543 407.500 C 762.288 427.077, 761.073 431.643, 758.030 443.252 C 756.335 449.715, 754.552 456.048, 754.067 457.323 C 753.437 458.981, 744.804 464.457, 723.843 476.496 C 707.704 485.765, 694.386 493.421, 694.247 493.510 C 694.108 493.599, 694.999 496.333, 696.226 499.586 C 698.401 505.350, 698.466 506.695, 698.775 552.750 C 698.949 578.737, 699.308 600, 699.573 600 C 699.838 600, 722.335 587.128, 749.566 571.396 L 799.078 542.793 812.289 546.451 C 819.555 548.463, 826.400 550.303, 827.500 550.541 C 828.600 550.779, 841.200 554.151, 855.500 558.034 C 869.800 561.918, 882.400 565.293, 883.500 565.534 C 884.600 565.776, 897.200 569.149, 911.500 573.031 C 925.800 576.913, 938.353 580.281, 939.395 580.515 C 947.307 582.293, 1017.487 601.515, 1023.680 603.600 C 1030.514 605.901, 1032.652 606.173, 1040.642 605.761 C 1048.190 605.372, 1050.954 604.742, 1056.505 602.144 C 1065.391 597.986, 1076.216 587.143, 1080.730 577.881 C 1084.480 570.183, 1087.480 554.972, 1086.495 548.648 C 1083.864 531.760, 1077.521 520.735, 1065.788 512.654 C 1061.790 509.901, 1057.561 508.244, 1048.974 506.068 C 1037.272 503.102, 996.609 492.295, 953.500 480.693 C 940.300 477.140, 928.014 473.915, 926.197 473.526 C 924.380 473.136, 923.033 472.401, 923.203 471.892 C 923.642 470.573, 1066.880 388, 1068.728 388 C 1069.569 388, 1073.926 384.288, 1078.410 379.750 C 1085.489 372.587, 1086.880 370.583, 1088.966 364.538 C 1093.180 352.331, 1091.413 335.006, 1085.042 326.059 C 1083.919 324.482, 1083 322.799, 1083 322.321 C 1083 321.842, 1079.737 318.275, 1075.750 314.394 C 1062.653 301.648, 1047.095 296.703, 1030.799 300.107 C 1027.885 300.716, 1025.073 301.616, 1024.550 302.107 C 1024.028 302.598, 1022.871 303, 1021.980 303 C 1021.089 303, 1018.460 304.627, 1016.137 306.615 C 1012.931 309.359, 925.328 360.677, 880.314 386.180 L 875.129 389.118 876.146 385.435 C 876.705 383.408, 877.330 381.019, 877.534 380.125 C 877.738 379.231, 879.279 373.550, 880.959 367.500 C 882.640 361.450, 884.216 355.600, 884.462 354.500 C 884.709 353.400, 885.639 350.025, 886.528 347 C 887.418 343.975, 888.318 340.600, 888.528 339.500 C 888.738 338.400, 889.651 334.800, 890.556 331.500 C 891.461 328.200, 892.360 324.825, 892.553 324 C 892.747 323.175, 894.279 317.550, 895.959 311.500 C 897.640 305.450, 899.217 299.600, 899.465 298.500 C 899.713 297.400, 900.655 293.800, 901.559 290.500 C 902.463 287.200, 903.360 283.825, 903.553 283 C 904.410 279.340, 910.073 259.901, 912.002 254 C 915.603 242.979, 914.525 229.484, 909.256 219.647 C 906.531 214.558, 893.879 201, 891.855 201 C 891.280 201, 889.614 200.153, 888.154 199.118 C 885.427 197.185, 878.254 194.477, 873.299 193.511 C 868.689 192.612, 857.537 191.784, 857 192.301 M 215.500 200.928 C 204.915 203.961, 194.247 209.931, 190.354 215 C 189.721 215.825, 188.009 217.850, 186.550 219.500 C 180.552 226.286, 176.702 238.128, 177.122 248.500 C 177.378 254.791, 178.058 257.584, 181.144 265 C 183.255 270.074, 215.230 388.884, 214.786 390.004 C 214.525 390.662, 81.371 314.214, 74.472 309.446 C 65.913 303.530, 53.052 301.029, 43 303.326 C 41.625 303.640, 39.575 304.103, 38.445 304.354 C 35.913 304.916, 30.635 307.305, 26.036 309.970 C 22.445 312.052, 8.969 324.892, 9.300 325.918 C 9.403 326.238, 8.376 328.292, 7.018 330.483 C 5.660 332.674, 4.438 334.924, 4.302 335.483 C 4.166 336.042, 3.375 339.200, 2.543 342.500 C 1.712 345.800, 1.024 350.390, 1.016 352.701 C 0.997 357.640, 2.777 366.654, 4.332 369.500 C 4.933 370.600, 5.327 371.844, 5.208 372.265 C 5.088 372.685, 8.255 376.385, 12.245 380.486 C 19.291 387.727, 21.586 389.144, 91.813 429.608 C 131.585 452.525, 163.760 471.614, 163.313 472.029 C 161.964 473.283, 46.012 504, 42.631 504 C 38.156 504, 26.590 507.479, 22.217 510.140 C 12.085 516.306, 4.542 526.913, 1.339 539.500 C 0.079 544.450, 0.249 558.228, 1.636 563.537 C 4.319 573.813, 10.857 585.695, 16 589.646 C 16.825 590.279, 18.850 591.991, 20.500 593.450 C 27.286 599.448, 39.128 603.298, 49.500 602.878 C 55.796 602.622, 58.598 601.939, 66 598.852 C 68.475 597.819, 118.361 584.166, 176.858 568.511 L 283.216 540.048 337.723 571.524 C 367.701 588.836, 392.403 603, 392.615 603 C 392.827 603, 393 581.890, 393 556.089 C 393 511.990, 393.120 508.798, 394.996 502.839 L 396.993 496.500 394.836 495.022 C 393.650 494.209, 379.368 485.863, 363.098 476.476 L 333.517 459.408 322.334 417.954 C 316.184 395.154, 311.084 376.500, 311.002 376.500 C 310.919 376.500, 310.648 375.375, 310.400 374 C 310.152 372.625, 302.311 342.987, 292.975 308.139 C 283.639 273.290, 276 243.363, 276 241.635 C 276 237.156, 272.523 225.592, 269.860 221.217 C 263.695 211.086, 253.059 203.523, 240.500 200.341 C 235.071 198.966, 221.211 199.291, 215.500 200.928 M 526 466.446 C 518.116 468.108, 511.544 470.306, 503.250 474.052 L 497 476.875 497 515.044 C 497 549.198, 496.836 553.151, 495.442 552.616 C 494.584 552.287, 486.372 547.678, 477.192 542.374 C 468.011 537.070, 460.163 532.539, 459.750 532.306 C 459.337 532.073, 459 551.259, 459 574.941 L 459 618 546 618 L 633 618 633 573.458 L 633 528.916 628.422 531.599 C 625.904 533.074, 616.566 538.474, 607.672 543.599 L 591.500 552.916 591 513.786 L 590.500 474.656 583.926 471.963 C 571.609 466.916, 565.532 465.794, 548.500 465.423 C 537.536 465.184, 530.454 465.506, 526 466.446 M 1040.475 664.871 C 1037.161 665.886, 1032.999 667.466, 1031.225 668.384 C 1029.451 669.301, 1028 669.836, 1028 669.574 C 1028 669.311, 1025.862 669.770, 1023.250 670.594 C 1020.638 671.418, 1017.414 672.319, 1016.088 672.595 C 1014.761 672.872, 1008.911 674.434, 1003.088 676.067 C 989.658 679.832, 989.013 680.003, 986 680.587 C 984.625 680.854, 981.925 681.594, 980 682.231 C 975.571 683.699, 975.210 683.792, 971.091 684.546 C 969.217 684.889, 966.517 685.623, 965.091 686.177 C 963.666 686.731, 961.414 687.390, 960.088 687.641 C 958.761 687.892, 952.911 689.434, 947.088 691.067 C 932.830 695.065, 932.905 695.045, 929.591 695.644 C 927.992 695.933, 925.517 696.623, 924.091 697.177 C 922.666 697.731, 920.477 698.378, 919.227 698.616 C 917.326 698.977, 910.251 700.880, 878.500 709.571 C 877.400 709.872, 875.191 710.355, 873.591 710.644 C 871.992 710.933, 869.517 711.623, 868.091 712.177 C 866.666 712.731, 864.414 713.390, 863.088 713.641 C 861.761 713.892, 855.911 715.434, 850.088 717.067 C 836.658 720.832, 836.013 721.003, 833 721.587 C 831.625 721.854, 828.925 722.594, 827 723.231 C 822.900 724.590, 822.455 724.708, 818.500 725.483 C 816.850 725.807, 814.150 726.504, 812.500 727.031 C 810.850 727.559, 809.171 728.021, 808.768 728.060 C 808.366 728.098, 806.668 728.522, 804.995 729.001 C 802.196 729.804, 798.697 727.992, 761.289 706.372 C 738.924 693.446, 719.810 682.433, 718.813 681.900 C 717.073 680.969, 717 683.126, 717 735.731 L 717 790.533 732.750 799.600 L 748.500 808.667 752.181 822.084 C 754.205 829.463, 755.926 835.500, 756.005 835.500 C 756.084 835.500, 756.352 836.625, 756.600 838 C 757.189 841.264, 765.895 874.051, 766.690 876 C 767.027 876.825, 767.427 878.117, 767.580 878.871 C 768.585 883.822, 770.356 890.657, 770.853 891.500 C 771.177 892.050, 771.579 893.400, 771.747 894.500 C 772.133 897.035, 780.870 929.989, 781.689 932 C 782.026 932.825, 782.469 934.400, 782.674 935.500 C 783.219 938.415, 795.994 986.229, 796.701 988 C 797.031 988.825, 797.469 990.400, 797.676 991.500 C 797.882 992.600, 800.065 1001.005, 802.526 1010.179 C 804.987 1019.352, 807 1028.188, 807 1029.814 C 807 1037.140, 813.292 1050.286, 819.621 1056.183 C 824.094 1060.351, 833.724 1065.778, 839.761 1067.533 C 847.191 1069.693, 859.979 1069.660, 868.017 1067.460 C 882.887 1063.390, 897.265 1051.300, 902.354 1038.587 C 907.288 1026.264, 906.737 1012.560, 900.834 1000.750 C 899.803 998.688, 899.172 997, 899.432 997 C 899.692 997, 899.230 994.862, 898.406 992.250 C 897.582 989.638, 896.681 986.414, 896.405 985.088 C 896.128 983.761, 894.566 977.911, 892.933 972.088 C 889.168 958.658, 888.997 958.013, 888.413 955 C 888.146 953.625, 887.406 950.925, 886.769 949 C 885.301 944.571, 885.208 944.210, 884.454 940.091 C 884.111 938.217, 883.377 935.517, 882.823 934.091 C 882.269 932.666, 881.610 930.414, 881.359 929.088 C 881.108 927.761, 879.566 921.911, 877.933 916.088 C 874.168 902.658, 873.997 902.013, 873.413 899 C 873.146 897.625, 872.422 894.925, 871.804 893 C 871.186 891.075, 870.694 889.275, 870.712 889 C 870.729 888.725, 870.096 886.318, 869.304 883.651 C 868.512 880.985, 868.035 878.631, 868.245 878.422 C 868.598 878.069, 1008.245 958.369, 1027.404 969.942 C 1032.106 972.782, 1036.863 975.307, 1037.976 975.553 C 1039.089 975.799, 1041.013 976.268, 1042.250 976.595 C 1049.477 978.508, 1060.511 977.197, 1068.698 973.452 C 1071.674 972.091, 1074.647 970.535, 1075.304 969.993 C 1086.407 960.855, 1094.509 949.398, 1096.881 939.483 C 1099.871 926.982, 1098.423 913.954, 1092.968 904.289 C 1087.163 894.004, 1094.596 898.779, 994.047 840.742 C 954.747 818.059, 922.797 799.061, 923.047 798.523 C 923.296 797.986, 924.400 797.412, 925.500 797.248 C 928.008 796.873, 960.965 788.139, 963 787.311 C 963.825 786.974, 965.400 786.531, 966.500 786.326 C 969.415 785.781, 1017.229 773.006, 1019 772.299 C 1019.825 771.969, 1021.400 771.531, 1022.500 771.324 C 1023.600 771.118, 1032.005 768.935, 1041.179 766.474 C 1050.352 764.013, 1059.188 762, 1060.814 762 C 1065.297 762, 1073.911 758.996, 1079.500 755.483 C 1087.863 750.226, 1094.570 741.148, 1098.185 730.191 C 1100.648 722.724, 1100.623 708.658, 1098.130 699.997 C 1093.928 685.399, 1082.138 671.670, 1069.436 666.585 C 1060.330 662.939, 1048.980 662.268, 1040.475 664.871 M 52 665.813 C 42.759 667.056, 30.594 673.022, 24.495 679.302 C 17.910 686.083, 11.937 697.552, 10.330 706.500 C 9.171 712.953, 9.547 729.349, 10.864 729.788 C 11.495 729.998, 11.769 730.564, 11.472 731.045 C 11.175 731.525, 11.360 732.724, 11.883 733.709 C 12.405 734.694, 13.375 736.962, 14.038 738.750 C 14.701 740.538, 15.665 742, 16.180 742 C 16.696 742, 16.882 742.382, 16.594 742.848 C 15.758 744.201, 23.810 752.684, 29.394 756.334 C 34.673 759.786, 43.530 762.705, 50.865 763.412 C 55.412 763.850, 168.978 793.905, 170.296 795.018 C 171.232 795.810, 31.793 876.526, 27.750 877.532 C 26.237 877.909, 25 878.508, 25 878.864 C 25 879.220, 23.762 880.072, 22.250 880.758 C 20.738 881.443, 18.137 883.240, 16.472 884.752 C 13.075 887.834, 5.446 898, 6.530 898 C 6.915 898, 6.572 899.013, 5.767 900.250 C 3.551 903.657, 1.826 912.110, 1.791 919.737 C 1.756 927.356, 5.024 940.804, 7.907 944.899 C 8.914 946.329, 10.018 948.406, 10.361 949.514 C 11.183 952.169, 21.434 961.942, 26.500 964.901 C 36.553 970.774, 47.019 972.085, 58.724 968.940 C 63.276 967.717, 67 966.330, 67 965.858 C 67 965.386, 67.460 965, 68.021 965 C 68.583 965, 70.913 963.763, 73.198 962.250 C 79.169 958.298, 214.442 880.204, 214.795 880.505 C 215.441 881.056, 185.902 989.695, 184.378 992.372 C 179.432 1001.060, 177.753 1014.726, 180.407 1024.694 C 187.606 1051.736, 220.721 1067.599, 248.682 1057.401 C 252.707 1055.933, 256 1054.342, 256 1053.866 C 256 1053.390, 256.606 1053, 257.348 1053 C 258.882 1053, 268.120 1043.870, 271.066 1039.442 C 273.535 1035.730, 276.995 1024.358, 277.014 1019.892 C 277.022 1018.026, 289.319 970.641, 304.340 914.591 L 331.652 812.682 352.326 800.742 L 373 788.802 373 733.952 L 373 679.102 351.750 691.373 C 340.063 698.122, 321.021 709.120, 309.435 715.813 L 288.371 727.982 182.022 699.478 C 123.530 683.800, 75.184 670.600, 74.586 670.143 C 71.540 667.814, 57.346 665.093, 52 665.813 M 497 880.855 L 497 905.710 490.018 912.706 C 486.178 916.554, 482.803 919.469, 482.518 919.184 C 482.233 918.900, 482 919.115, 482 919.663 C 482 920.739, 472.010 931.182, 471.985 930.133 C 471.976 929.785, 471.572 930.128, 471.085 930.896 C 469.336 933.658, 442.045 960.712, 441.529 960.195 C 441.238 959.905, 441 960.115, 441 960.663 C 441 961.211, 438.750 963.934, 436 966.713 C 433.250 969.492, 431 971.592, 431 971.380 C 431 971.168, 429.313 972.868, 427.250 975.158 C 420.777 982.347, 412.023 990.689, 411.501 990.167 C 411.225 989.892, 411 990.115, 411 990.663 C 411 991.739, 401.010 1002.182, 400.985 1001.133 C 400.976 1000.785, 400.572 1001.128, 400.085 1001.896 C 398.336 1004.658, 371.045 1031.712, 370.529 1031.195 C 370.238 1030.905, 370 1031.115, 370 1031.663 C 370 1032.211, 367.750 1034.934, 365 1037.713 C 362.250 1040.492, 360 1042.598, 360 1042.392 C 360 1042.187, 357.637 1044.607, 354.750 1047.769 C 351.863 1050.932, 347.084 1055.540, 344.132 1058.010 C 333.083 1067.252, 328.994 1071.334, 326.467 1075.647 C 318.286 1089.606, 318.694 1107.704, 327.533 1123.019 C 331.324 1129.588, 342.027 1141, 344.396 1141 C 345.108 1141, 346.505 1141.900, 347.500 1143 C 348.495 1144.100, 350.114 1145, 351.096 1145 C 352.078 1145, 353.142 1145.421, 353.461 1145.936 C 353.779 1146.451, 357.468 1147.635, 361.660 1148.568 C 368.766 1150.149, 376.224 1150.150, 383.810 1148.572 C 391.709 1146.929, 403.888 1138.448, 408.013 1131.717 C 409.805 1128.792, 416.796 1121.330, 426.634 1111.842 C 429.860 1108.730, 439.098 1099.505, 447.162 1091.342 C 455.226 1083.179, 464.451 1073.941, 467.662 1070.814 C 470.873 1067.687, 478.675 1059.896, 485 1053.501 L 496.500 1041.874 497 1129.687 L 497.500 1217.500 500.436 1223.500 C 511.940 1247.009, 543.149 1256.083, 568.446 1243.272 C 575.214 1239.845, 584.025 1230.733, 587.564 1223.500 L 590.500 1217.500 591 1135.500 L 591.500 1053.500 597.087 1059.246 C 600.160 1062.407, 602.447 1065.219, 602.170 1065.496 C 601.893 1065.773, 602.115 1066, 602.663 1066 C 603.739 1066, 614.182 1075.990, 613.133 1076.015 C 612.785 1076.024, 613.128 1076.428, 613.896 1076.915 C 616.658 1078.664, 643.712 1105.955, 643.195 1106.471 C 642.905 1106.762, 643.115 1107, 643.663 1107 C 644.211 1107, 646.934 1109.250, 649.713 1112 C 652.492 1114.750, 654.598 1117, 654.392 1117 C 654.187 1117, 656.607 1119.362, 659.769 1122.250 C 662.932 1125.138, 667.540 1129.916, 670.010 1132.868 C 679.252 1143.917, 683.334 1148.006, 687.647 1150.533 C 701.606 1158.714, 719.704 1158.306, 735.019 1149.467 C 741.588 1145.676, 753 1134.973, 753 1132.604 C 753 1131.892, 753.900 1130.495, 755 1129.500 C 756.100 1128.505, 757 1126.886, 757 1125.904 C 757 1124.922, 757.421 1123.858, 757.936 1123.539 C 758.451 1123.221, 759.635 1119.532, 760.568 1115.340 C 762.149 1108.234, 762.150 1100.776, 760.572 1093.190 C 758.904 1085.168, 749.463 1071.877, 743.031 1068.494 C 741.639 1067.762, 736 1062.603, 730.500 1057.030 C 725 1051.457, 716.301 1042.758, 711.168 1037.699 C 706.035 1032.640, 696.810 1023.388, 690.668 1017.140 C 684.526 1010.892, 677.767 1004.142, 675.649 1002.140 C 673.531 1000.138, 666.781 993.409, 660.649 987.186 C 654.517 980.963, 645.313 971.738, 640.195 966.686 C 635.077 961.634, 625.852 952.408, 619.695 946.184 C 613.538 939.960, 604.563 930.987, 599.750 926.244 L 591 917.620 591 886.810 L 591 856 544 856 L 497 856 497 880.855" stroke="none" fill="#24c3d3" fill-rule="evenodd"/></svg>